%TF.GenerationSoftware,KiCad,Pcbnew,10.0.3*%
%TF.CreationDate,2026-07-03T03:36:02+09:00*%
%TF.ProjectId,softswitcher,736f6674-7377-4697-9463-6865722e6b69,rev?*%
%TF.SameCoordinates,Original*%
%TF.FileFunction,Copper,L2,Bot*%
%TF.FilePolarity,Positive*%
%FSLAX46Y46*%
G04 Gerber Fmt 4.6, Leading zero omitted, Abs format (unit mm)*
G04 Created by KiCad (PCBNEW 10.0.3) date 2026-07-03 03:36:02*
%MOMM*%
%LPD*%
G01*
G04 APERTURE LIST*
G04 Aperture macros list*
%AMRoundRect*
0 Rectangle with rounded corners*
0 $1 Rounding radius*
0 $2 $3 $4 $5 $6 $7 $8 $9 X,Y pos of 4 corners*
0 Add a 4 corners polygon primitive as box body*
4,1,4,$2,$3,$4,$5,$6,$7,$8,$9,$2,$3,0*
0 Add four circle primitives for the rounded corners*
1,1,$1+$1,$2,$3*
1,1,$1+$1,$4,$5*
1,1,$1+$1,$6,$7*
1,1,$1+$1,$8,$9*
0 Add four rect primitives between the rounded corners*
20,1,$1+$1,$2,$3,$4,$5,0*
20,1,$1+$1,$4,$5,$6,$7,0*
20,1,$1+$1,$6,$7,$8,$9,0*
20,1,$1+$1,$8,$9,$2,$3,0*%
%AMFreePoly0*
4,1,37,0.603843,0.796157,0.639018,0.796157,0.711114,0.766294,0.766294,0.711114,0.796157,0.639018,0.796157,0.603843,0.800000,0.600000,0.800000,-0.600000,0.796157,-0.603843,0.796157,-0.639018,0.766294,-0.711114,0.711114,-0.766294,0.639018,-0.796157,0.603843,-0.796157,0.600000,-0.800000,0.000000,-0.800000,0.000000,-0.796148,-0.078414,-0.796148,-0.232228,-0.765552,-0.377117,-0.705537,
-0.507515,-0.618408,-0.618408,-0.507515,-0.705537,-0.377117,-0.765552,-0.232228,-0.796148,-0.078414,-0.796148,0.078414,-0.765552,0.232228,-0.705537,0.377117,-0.618408,0.507515,-0.507515,0.618408,-0.377117,0.705537,-0.232228,0.765552,-0.078414,0.796148,0.000000,0.796148,0.000000,0.800000,0.600000,0.800000,0.603843,0.796157,0.603843,0.796157,$1*%
%AMFreePoly1*
4,1,37,0.000000,0.796148,0.078414,0.796148,0.232228,0.765552,0.377117,0.705537,0.507515,0.618408,0.618408,0.507515,0.705537,0.377117,0.765552,0.232228,0.796148,0.078414,0.796148,-0.078414,0.765552,-0.232228,0.705537,-0.377117,0.618408,-0.507515,0.507515,-0.618408,0.377117,-0.705537,0.232228,-0.765552,0.078414,-0.796148,0.000000,-0.796148,0.000000,-0.800000,-0.600000,-0.800000,
-0.603843,-0.796157,-0.639018,-0.796157,-0.711114,-0.766294,-0.766294,-0.711114,-0.796157,-0.639018,-0.796157,-0.603843,-0.800000,-0.600000,-0.800000,0.600000,-0.796157,0.603843,-0.796157,0.639018,-0.766294,0.711114,-0.711114,0.766294,-0.639018,0.796157,-0.603843,0.796157,-0.600000,0.800000,0.000000,0.800000,0.000000,0.796148,0.000000,0.796148,$1*%
G04 Aperture macros list end*
%TA.AperFunction,ComponentPad*%
%ADD10RoundRect,0.200000X0.600000X0.600000X-0.600000X0.600000X-0.600000X-0.600000X0.600000X-0.600000X0*%
%TD*%
%TA.AperFunction,ComponentPad*%
%ADD11C,1.600000*%
%TD*%
%TA.AperFunction,ComponentPad*%
%ADD12FreePoly0,180.000000*%
%TD*%
%TA.AperFunction,ComponentPad*%
%ADD13FreePoly1,180.000000*%
%TD*%
%TA.AperFunction,ComponentPad*%
%ADD14O,1.000000X2.100000*%
%TD*%
%TA.AperFunction,ComponentPad*%
%ADD15O,1.000000X1.800000*%
%TD*%
%TA.AperFunction,ComponentPad*%
%ADD16C,2.200000*%
%TD*%
%TA.AperFunction,SMDPad,CuDef*%
%ADD17R,1.800000X0.900000*%
%TD*%
%TA.AperFunction,ViaPad*%
%ADD18C,0.600000*%
%TD*%
%TA.AperFunction,Conductor*%
%ADD19C,1.500000*%
%TD*%
%TA.AperFunction,Conductor*%
%ADD20C,0.200000*%
%TD*%
%TA.AperFunction,Conductor*%
%ADD21C,0.800000*%
%TD*%
%TA.AperFunction,Conductor*%
%ADD22C,0.600000*%
%TD*%
G04 APERTURE END LIST*
D10*
%TO.P,A1,1,GPIO0_1*%
%TO.N,/pgm1*%
X73000000Y-76980000D03*
D11*
%TO.P,A1,2,GPIO1_2*%
%TO.N,unconnected-(A1-GPIO1-Pad2)*%
X73000000Y-74440000D03*
D12*
%TO.P,A1,3,GND_3*%
%TO.N,GND*%
X73000000Y-71900000D03*
D11*
%TO.P,A1,4,GPIO2_4*%
%TO.N,/src8*%
X73000000Y-69360000D03*
%TO.P,A1,5,GPIO3_5*%
%TO.N,/src7*%
X73000000Y-66820000D03*
%TO.P,A1,6,GPIO4_6*%
%TO.N,/src6*%
X73000000Y-64280000D03*
%TO.P,A1,7,GPIO5_7*%
%TO.N,/src5*%
X73000000Y-61740000D03*
D12*
%TO.P,A1,8,GND_8*%
%TO.N,GND*%
X73000000Y-59200000D03*
D11*
%TO.P,A1,9,GPIO6_9*%
%TO.N,/src4*%
X73000000Y-56660000D03*
%TO.P,A1,10,GPIO7_10*%
%TO.N,/src3*%
X73000000Y-54120000D03*
%TO.P,A1,11,GPIO8_11*%
%TO.N,/src2*%
X73000000Y-51580000D03*
%TO.P,A1,12,GPIO9_12*%
%TO.N,/src1*%
X73000000Y-49040000D03*
D12*
%TO.P,A1,13,GND_13*%
%TO.N,GND*%
X73000000Y-46500000D03*
D11*
%TO.P,A1,14,GPIO10_14*%
%TO.N,unconnected-(A1-GPIO10-Pad14)*%
X73000000Y-43960000D03*
%TO.P,A1,15,GPIO11_15*%
%TO.N,/pgm2*%
X73000000Y-41420000D03*
%TO.P,A1,16,GPIO12_16*%
%TO.N,unconnected-(A1-GPIO12-Pad16)*%
X73000000Y-38880000D03*
%TO.P,A1,17,GPIO13_17*%
%TO.N,unconnected-(A1-GPIO13-Pad17)*%
X73000000Y-36340000D03*
D12*
%TO.P,A1,18,GND_18*%
%TO.N,GND*%
X73000000Y-33800000D03*
D11*
%TO.P,A1,19,GPIO14_19*%
%TO.N,unconnected-(A1-GPIO14-Pad19)*%
X73000000Y-31260000D03*
%TO.P,A1,20,GPIO15_20*%
%TO.N,unconnected-(A1-GPIO15-Pad20)*%
X73000000Y-28720000D03*
%TO.P,A1,21,GPIO16_21*%
%TO.N,unconnected-(A1-GPIO16-Pad21)*%
X55220000Y-28720000D03*
%TO.P,A1,22,GPIO17_22*%
%TO.N,unconnected-(A1-GPIO17-Pad22)*%
X55220000Y-31260000D03*
D13*
%TO.P,A1,23,GND_23*%
%TO.N,GND*%
X55220000Y-33800000D03*
D11*
%TO.P,A1,24,GPIO18_24*%
%TO.N,unconnected-(A1-GPIO18-Pad24)*%
X55220000Y-36340000D03*
%TO.P,A1,25,GPIO19_25*%
%TO.N,unconnected-(A1-GPIO19-Pad25)*%
X55220000Y-38880000D03*
%TO.P,A1,26,GPIO20_26*%
%TO.N,unconnected-(A1-GPIO20-Pad26)*%
X55220000Y-41420000D03*
%TO.P,A1,27,GPIO21_27*%
%TO.N,unconnected-(A1-GPIO21-Pad27)*%
X55220000Y-43960000D03*
D13*
%TO.P,A1,28,GND_28*%
%TO.N,GND*%
X55220000Y-46500000D03*
D11*
%TO.P,A1,29,GPIO22_29*%
%TO.N,/src-led*%
X55220000Y-49040000D03*
%TO.P,A1,30,RUN_30*%
%TO.N,unconnected-(A1-RUN-Pad30)*%
X55220000Y-51580000D03*
%TO.P,A1,31,GPIO26_ADC0_31*%
%TO.N,unconnected-(A1-GPIO26_ADC0-Pad31)*%
X55220000Y-54120000D03*
%TO.P,A1,32,GPIO27_ADC1_32*%
%TO.N,unconnected-(A1-GPIO27_ADC1-Pad32)*%
X55220000Y-56660000D03*
D13*
%TO.P,A1,33,AGND_33*%
%TO.N,unconnected-(A1-AGND-Pad33)*%
X55220000Y-59200000D03*
D11*
%TO.P,A1,34,GPIO28_ADC2_34*%
%TO.N,unconnected-(A1-GPIO28_ADC2-Pad34)*%
X55220000Y-61740000D03*
%TO.P,A1,35,ADC_VREF_35*%
%TO.N,unconnected-(A1-ADC_VREF-Pad35)*%
X55220000Y-64280000D03*
%TO.P,A1,36,3V3_36*%
%TO.N,unconnected-(A1-3V3-Pad36)*%
X55220000Y-66820000D03*
%TO.P,A1,37,3V3_EN_37*%
%TO.N,unconnected-(A1-3V3_EN-Pad37)*%
X55220000Y-69360000D03*
D13*
%TO.P,A1,38,GND_38*%
%TO.N,GND*%
X55220000Y-71900000D03*
D11*
%TO.P,A1,39,VSYS_39*%
%TO.N,unconnected-(A1-VSYS-Pad39)*%
X55220000Y-74440000D03*
%TO.P,A1,40,VBUS_40*%
%TO.N,unconnected-(A1-VBUS-Pad40)*%
X55220000Y-76980000D03*
%TD*%
D14*
%TO.P,J1,SH,SHIELD_SH*%
%TO.N,GND*%
X95975000Y-18820000D03*
D15*
X95975000Y-14640000D03*
D14*
X87335000Y-18820000D03*
D15*
X87335000Y-14640000D03*
%TD*%
D16*
%TO.P,U9,1,~_1*%
%TO.N,Net-(D8-A)*%
X163690000Y-85285000D03*
%TO.P,U9,2,~_2*%
%TO.N,/src4*%
X170040000Y-82745000D03*
D17*
%TO.P,U9,3,VSS_3*%
%TO.N,GND*%
X164900000Y-92125000D03*
%TO.P,U9,4,DIN_4*%
%TO.N,Net-(U7-DOUT)*%
X164900000Y-93625000D03*
%TO.P,U9,5,DOUT_5*%
%TO.N,Net-(U2-DIN)*%
X170100000Y-92125000D03*
%TO.P,U9,6,VDD_6*%
%TO.N,VDD*%
X170100000Y-93625000D03*
%TD*%
D16*
%TO.P,U8,1,~_1*%
%TO.N,Net-(D7-A)*%
X163690000Y-64285000D03*
%TO.P,U8,2,~_2*%
%TO.N,/src4*%
X170040000Y-61745000D03*
D17*
%TO.P,U8,3,VSS_3*%
%TO.N,GND*%
X164900000Y-71125000D03*
%TO.P,U8,4,DIN_4*%
%TO.N,Net-(U6-DOUT)*%
X164900000Y-72625000D03*
%TO.P,U8,5,DOUT_5*%
%TO.N,unconnected-(U8-DOUT-Pad5)*%
X170100000Y-71125000D03*
%TO.P,U8,6,VDD_6*%
%TO.N,VDD*%
X170100000Y-72625000D03*
%TD*%
D16*
%TO.P,U7,1,~_1*%
%TO.N,Net-(D6-A)*%
X143690000Y-85285000D03*
%TO.P,U7,2,~_2*%
%TO.N,/src3*%
X150040000Y-82745000D03*
D17*
%TO.P,U7,3,VSS_3*%
%TO.N,GND*%
X144900000Y-92125000D03*
%TO.P,U7,4,DIN_4*%
%TO.N,Net-(U5-DOUT)*%
X144900000Y-93625000D03*
%TO.P,U7,5,DOUT_5*%
%TO.N,Net-(U7-DOUT)*%
X150100000Y-92125000D03*
%TO.P,U7,6,VDD_6*%
%TO.N,VDD*%
X150100000Y-93625000D03*
%TD*%
D16*
%TO.P,U6,1,~_1*%
%TO.N,Net-(D5-A)*%
X143690000Y-64285000D03*
%TO.P,U6,2,~_2*%
%TO.N,/src3*%
X150040000Y-61745000D03*
D17*
%TO.P,U6,3,VSS_3*%
%TO.N,GND*%
X144900000Y-71125000D03*
%TO.P,U6,4,DIN_4*%
%TO.N,Net-(U4-DOUT)*%
X144900000Y-72625000D03*
%TO.P,U6,5,DOUT_5*%
%TO.N,Net-(U6-DOUT)*%
X150100000Y-71125000D03*
%TO.P,U6,6,VDD_6*%
%TO.N,VDD*%
X150100000Y-72625000D03*
%TD*%
D16*
%TO.P,U5,1,~_1*%
%TO.N,Net-(D4-A)*%
X123690000Y-85285000D03*
%TO.P,U5,2,~_2*%
%TO.N,/src2*%
X130040000Y-82745000D03*
D17*
%TO.P,U5,3,VSS_3*%
%TO.N,GND*%
X124900000Y-92125000D03*
%TO.P,U5,4,DIN_4*%
%TO.N,Net-(U3-DOUT)*%
X124900000Y-93625000D03*
%TO.P,U5,5,DOUT_5*%
%TO.N,Net-(U5-DOUT)*%
X130100000Y-92125000D03*
%TO.P,U5,6,VDD_6*%
%TO.N,VDD*%
X130100000Y-93625000D03*
%TD*%
D16*
%TO.P,U4,1,~_1*%
%TO.N,Net-(D3-A)*%
X123690000Y-64285000D03*
%TO.P,U4,2,~_2*%
%TO.N,/src2*%
X130040000Y-61745000D03*
D17*
%TO.P,U4,3,VSS_3*%
%TO.N,GND*%
X124900000Y-71125000D03*
%TO.P,U4,4,DIN_4*%
%TO.N,Net-(U2-DOUT)*%
X124900000Y-72625000D03*
%TO.P,U4,5,DOUT_5*%
%TO.N,Net-(U4-DOUT)*%
X130100000Y-71125000D03*
%TO.P,U4,6,VDD_6*%
%TO.N,VDD*%
X130100000Y-72625000D03*
%TD*%
D16*
%TO.P,U2,1,~_1*%
%TO.N,Net-(D1-A)*%
X103690000Y-64285000D03*
%TO.P,U2,2,~_2*%
%TO.N,/src1*%
X110040000Y-61745000D03*
D17*
%TO.P,U2,3,VSS_3*%
%TO.N,GND*%
X104900000Y-71125000D03*
%TO.P,U2,4,DIN_4*%
%TO.N,Net-(U2-DIN)*%
X104900000Y-72625000D03*
%TO.P,U2,5,DOUT_5*%
%TO.N,Net-(U2-DOUT)*%
X110100000Y-71125000D03*
%TO.P,U2,6,VDD_6*%
%TO.N,VDD*%
X110100000Y-72625000D03*
%TD*%
D16*
%TO.P,U3,1,~_1*%
%TO.N,Net-(D2-A)*%
X103690000Y-85285000D03*
%TO.P,U3,2,~_2*%
%TO.N,/src1*%
X110040000Y-82745000D03*
D17*
%TO.P,U3,3,VSS_3*%
%TO.N,GND*%
X104900000Y-92125000D03*
%TO.P,U3,4,DIN_4*%
%TO.N,/src-led*%
X104900000Y-93625000D03*
%TO.P,U3,5,DOUT_5*%
%TO.N,Net-(U3-DOUT)*%
X110100000Y-92125000D03*
%TO.P,U3,6,VDD_6*%
%TO.N,VDD*%
X110100000Y-93625000D03*
%TD*%
D18*
%TO.N,GND*%
X95000000Y-64000000D03*
X96000000Y-65000000D03*
X95500000Y-64500000D03*
X76500000Y-46500000D03*
X77200000Y-47000000D03*
X77200000Y-46000000D03*
X77200000Y-46500000D03*
X83500000Y-31000000D03*
X83500000Y-30500000D03*
X83500000Y-30000000D03*
%TO.N,Net-(J1-CC1)*%
X78500000Y-31000000D03*
X92905000Y-21905000D03*
%TO.N,/src-led*%
X82000000Y-81125000D03*
X94500000Y-93625000D03*
%TO.N,VDD*%
X92500000Y-36000000D03*
%TD*%
%TO.N,GND*%
D19*
X104068350Y-92125000D02*
X104550000Y-92125000D01*
X100500000Y-69500000D02*
X100500000Y-88556650D01*
X100500000Y-88556650D02*
X104068350Y-92125000D01*
X100500000Y-69500000D02*
X102250000Y-71250000D01*
D20*
X100500000Y-75000000D02*
X100500000Y-89000000D01*
X100500000Y-75000000D02*
X100500000Y-69500000D01*
%TO.N,/src-led*%
X50460000Y-49040000D02*
X55220000Y-49040000D01*
X47500000Y-52000000D02*
X50460000Y-49040000D01*
X47500000Y-75500000D02*
X47500000Y-52000000D01*
X53125000Y-81125000D02*
X47500000Y-75500000D01*
X82000000Y-81125000D02*
X53125000Y-81125000D01*
%TO.N,GND*%
X102375000Y-71125000D02*
X102250000Y-71250000D01*
X104900000Y-71125000D02*
X102375000Y-71125000D01*
D19*
X95000000Y-64000000D02*
X100500000Y-69500000D01*
D20*
X102250000Y-71250000D02*
X100500000Y-73000000D01*
D19*
X76500000Y-46500000D02*
X77200000Y-46500000D01*
X77200000Y-47000000D02*
X77200000Y-59000000D01*
X77200000Y-46000000D02*
X77200000Y-46500000D01*
X73000000Y-46500000D02*
X76500000Y-46500000D01*
X55220000Y-33800000D02*
X52200000Y-33800000D01*
X52200000Y-33800000D02*
X51500000Y-34500000D01*
X51500000Y-46000000D02*
X51500000Y-34500000D01*
X52000000Y-46500000D02*
X51500000Y-46000000D01*
X55220000Y-46500000D02*
X52000000Y-46500000D01*
X73000000Y-71900000D02*
X55220000Y-71900000D01*
X73000000Y-46500000D02*
X55220000Y-46500000D01*
X77200000Y-33800000D02*
X77200000Y-46000000D01*
D20*
X77000000Y-59200000D02*
X77200000Y-59000000D01*
D19*
X73000000Y-59200000D02*
X77000000Y-59200000D01*
X77200000Y-46500000D02*
X77200000Y-47000000D01*
X75600000Y-71900000D02*
X73000000Y-71900000D01*
X77200000Y-70300000D02*
X75600000Y-71900000D01*
X77200000Y-59000000D02*
X77200000Y-70300000D01*
X76800000Y-33800000D02*
X73000000Y-33800000D01*
D21*
X80500000Y-30500000D02*
X77200000Y-33800000D01*
X77200000Y-33800000D02*
X76800000Y-33800000D01*
X83500000Y-30500000D02*
X80500000Y-30500000D01*
X87335000Y-14640000D02*
X87335000Y-18820000D01*
X87335000Y-14640000D02*
X95975000Y-14640000D01*
X95975000Y-18820000D02*
X95975000Y-14640000D01*
X95975000Y-20525000D02*
X95975000Y-18820000D01*
X83800000Y-29200000D02*
X87300000Y-29200000D01*
X83500000Y-29500000D02*
X83800000Y-29200000D01*
X83500000Y-30500000D02*
X83500000Y-29500000D01*
X87300000Y-29200000D02*
X95975000Y-20525000D01*
X83500000Y-31000000D02*
X83500000Y-30000000D01*
%TO.N,Net-(J1-CC1)*%
D20*
X81000000Y-28500000D02*
X78500000Y-31000000D01*
X86310000Y-28500000D02*
X81000000Y-28500000D01*
X92905000Y-21905000D02*
X86310000Y-28500000D01*
%TO.N,VDD*%
D21*
X93500000Y-37000000D02*
X92500000Y-36000000D01*
X93500000Y-94500000D02*
X93500000Y-37000000D01*
X94500000Y-95500000D02*
X93500000Y-94500000D01*
X109700000Y-95500000D02*
X94500000Y-95500000D01*
X110100000Y-95100000D02*
X109700000Y-95500000D01*
X169500000Y-97500000D02*
X167500000Y-97500000D01*
X173375000Y-93625000D02*
X169500000Y-97500000D01*
%TO.N,Net-(U2-DIN)*%
D20*
X173885050Y-92125000D02*
X170100000Y-92125000D01*
X175200000Y-90810050D02*
X173885050Y-92125000D01*
X175200000Y-85124265D02*
X175200000Y-90810050D01*
X168275735Y-78200000D02*
X175200000Y-85124265D01*
X151210050Y-78200000D02*
X168275735Y-78200000D01*
X149810050Y-76800000D02*
X151210050Y-78200000D01*
X130589950Y-76800000D02*
X149810050Y-76800000D01*
X129189949Y-78200000D02*
X130589950Y-76800000D01*
X109776472Y-78200000D02*
X129189949Y-78200000D01*
X104900000Y-73323528D02*
X109776472Y-78200000D01*
X104900000Y-72625000D02*
X104900000Y-73323528D01*
%TO.N,VDD*%
D21*
X173375000Y-93625000D02*
X170100000Y-93625000D01*
X175900000Y-84834315D02*
X175900000Y-91100000D01*
X175900000Y-91100000D02*
X173375000Y-93625000D01*
D20*
X168065686Y-97500000D02*
X167500000Y-97500000D01*
D21*
X168565685Y-77500000D02*
X175900000Y-84834315D01*
D20*
X168500000Y-77500000D02*
X168565685Y-77500000D01*
%TO.N,GND*%
X100500000Y-73000000D02*
X100500000Y-75000000D01*
X100500000Y-89000000D02*
X102000000Y-90500000D01*
X103500000Y-70000000D02*
X102250000Y-71250000D01*
X105000000Y-70000000D02*
X103500000Y-70000000D01*
D22*
X102000000Y-90500000D02*
X105500000Y-90500000D01*
D20*
X105000000Y-70000000D02*
X104900000Y-70100000D01*
X104900000Y-71125000D02*
X104900000Y-70100000D01*
X124900000Y-90600000D02*
X125000000Y-90500000D01*
D22*
X124900000Y-92125000D02*
X124900000Y-90600000D01*
X125000000Y-90500000D02*
X105500000Y-90500000D01*
X145000000Y-90500000D02*
X125000000Y-90500000D01*
X144900000Y-92125000D02*
X144900000Y-90600000D01*
D20*
X144900000Y-90600000D02*
X145000000Y-90500000D01*
D22*
X104900000Y-91100000D02*
X104900000Y-92125000D01*
X105500000Y-90500000D02*
X104900000Y-91100000D01*
X164500000Y-90500000D02*
X145000000Y-90500000D01*
X164900000Y-90900000D02*
X164500000Y-90500000D01*
X164900000Y-92125000D02*
X164900000Y-90900000D01*
D20*
X124900000Y-69600000D02*
X125000000Y-69500000D01*
X124900000Y-71125000D02*
X124900000Y-69600000D01*
X125000000Y-69500000D02*
X105500000Y-69500000D01*
X144900000Y-71125000D02*
X144900000Y-69600000D01*
X145000000Y-69500000D02*
X125000000Y-69500000D01*
X144900000Y-69600000D02*
X145000000Y-69500000D01*
X105500000Y-69500000D02*
X105000000Y-70000000D01*
X164500000Y-69500000D02*
X145000000Y-69500000D01*
X164900000Y-69900000D02*
X164500000Y-69500000D01*
X164900000Y-71125000D02*
X164900000Y-69900000D01*
%TO.N,VDD*%
D21*
X130100000Y-76300000D02*
X130100000Y-75900000D01*
X128900000Y-77500000D02*
X130100000Y-76300000D01*
X127500000Y-77500000D02*
X128900000Y-77500000D01*
D20*
X127500000Y-77500000D02*
X128500000Y-77500000D01*
D21*
X130300000Y-76100000D02*
X130100000Y-75900000D01*
X150100000Y-76100000D02*
X130300000Y-76100000D01*
X130200000Y-95000000D02*
X150100000Y-95000000D01*
X150100000Y-95000000D02*
X150100000Y-95100000D01*
D20*
X130100000Y-94900000D02*
X130200000Y-95000000D01*
D21*
X127500000Y-97500000D02*
X112500000Y-97500000D01*
X167500000Y-97500000D02*
X152500000Y-97500000D01*
X130100000Y-94900000D02*
X127500000Y-97500000D01*
X130100000Y-93625000D02*
X130100000Y-94900000D01*
X150100000Y-95100000D02*
X152500000Y-97500000D01*
X150100000Y-93625000D02*
X150100000Y-95000000D01*
X110100000Y-95100000D02*
X112500000Y-97500000D01*
X110100000Y-93625000D02*
X110100000Y-95100000D01*
X128500000Y-77500000D02*
X111500000Y-77500000D01*
X168500000Y-77500000D02*
X151500000Y-77500000D01*
X170100000Y-75900000D02*
X168500000Y-77500000D01*
X170100000Y-72625000D02*
X170100000Y-75900000D01*
X130100000Y-72625000D02*
X130100000Y-75900000D01*
X150100000Y-76100000D02*
X151500000Y-77500000D01*
X150100000Y-72625000D02*
X150100000Y-76100000D01*
X110100000Y-76100000D02*
X111500000Y-77500000D01*
X110100000Y-72625000D02*
X110100000Y-76100000D01*
%TO.N,Net-(U3-DOUT)*%
D20*
X116625000Y-92125000D02*
X110100000Y-92125000D01*
X118125000Y-93625000D02*
X116625000Y-92125000D01*
X124900000Y-93625000D02*
X118125000Y-93625000D01*
%TO.N,Net-(U5-DOUT)*%
X136625000Y-92125000D02*
X130100000Y-92125000D01*
X138125000Y-93625000D02*
X136625000Y-92125000D01*
X144900000Y-93625000D02*
X138125000Y-93625000D01*
%TO.N,Net-(U7-DOUT)*%
X156625000Y-92125000D02*
X150100000Y-92125000D01*
X158125000Y-93625000D02*
X156625000Y-92125000D01*
X164900000Y-93625000D02*
X158125000Y-93625000D01*
%TO.N,Net-(U2-DOUT)*%
X116625000Y-71125000D02*
X110100000Y-71125000D01*
X118125000Y-72625000D02*
X116625000Y-71125000D01*
X124900000Y-72625000D02*
X118125000Y-72625000D01*
%TO.N,Net-(U4-DOUT)*%
X136625000Y-71125000D02*
X130100000Y-71125000D01*
X138125000Y-72625000D02*
X136625000Y-71125000D01*
X144900000Y-72625000D02*
X138125000Y-72625000D01*
%TO.N,Net-(U6-DOUT)*%
X156625000Y-71125000D02*
X150100000Y-71125000D01*
X164900000Y-72625000D02*
X158125000Y-72625000D01*
X158125000Y-72625000D02*
X156625000Y-71125000D01*
%TO.N,/src-led*%
X104900000Y-93625000D02*
X94500000Y-93625000D01*
%TD*%
M02*
