M48
; DRILL file KiCad 10.0.3 date 2026-07-03T03:36:00
; FORMAT={-:-/ absolute / metric / decimal}
; #@! TF.CreationDate,2026-07-03T03:36:00+09:00
; #@! TF.GenerationSoftware,Kicad,Pcbnew,10.0.3
; #@! TF.FileFunction,NonPlated,1,2,NPTH
FMAT,2
METRIC
; #@! TA.AperFunction,NonPlated,NPTH,ComponentDrill
T1C0.650
; #@! TA.AperFunction,NonPlated,NPTH,ComponentDrill
T2C1.750
; #@! TA.AperFunction,NonPlated,NPTH,ComponentDrill
T3C4.000
%
G90
G05
T1
X88.765Y-18.32
X94.545Y-18.32
T2
X102.42Y-66.825
X102.42Y-87.825
X112.58Y-66.825
X112.58Y-87.825
X122.42Y-66.825
X122.42Y-87.825
X132.58Y-66.825
X132.58Y-87.825
X142.42Y-66.825
X142.42Y-87.825
X152.58Y-66.825
X152.58Y-87.825
X162.42Y-66.825
X162.42Y-87.825
X172.58Y-66.825
X172.58Y-87.825
T3
X107.5Y-66.825
X107.5Y-87.825
X127.5Y-66.825
X127.5Y-87.825
X147.5Y-66.825
X147.5Y-87.825
X167.5Y-66.825
X167.5Y-87.825
M30
