M48
; DRILL file KiCad 10.0.3 date 2026-07-03T03:36:00
; FORMAT={-:-/ absolute / metric / decimal}
; #@! TF.CreationDate,2026-07-03T03:36:00+09:00
; #@! TF.GenerationSoftware,Kicad,Pcbnew,10.0.3
; #@! TF.FileFunction,Plated,1,2,PTH
FMAT,2
METRIC
; #@! TA.AperFunction,Plated,PTH,ViaDrill
T1C0.300
; #@! TA.AperFunction,Plated,PTH,ComponentDrill
T2C0.600
; #@! TA.AperFunction,Plated,PTH,ComponentDrill
T3C1.000
; #@! TA.AperFunction,Plated,PTH,ComponentDrill
T4C1.500
%
G90
G05
T1
X76.5Y-46.5
X77.2Y-46.0
X77.2Y-46.5
X77.2Y-47.0
X78.5Y-31.0
X82.0Y-81.125
X83.5Y-30.0
X83.5Y-30.5
X83.5Y-31.0
X92.5Y-36.0
X92.905Y-21.905
X94.5Y-93.625
X95.0Y-64.0
X95.5Y-64.5
X96.0Y-65.0
T3
X55.22Y-28.72
X55.22Y-31.26
X55.22Y-33.8
X55.22Y-36.34
X55.22Y-38.88
X55.22Y-41.42
X55.22Y-43.96
X55.22Y-46.5
X55.22Y-49.04
X55.22Y-51.58
X55.22Y-54.12
X55.22Y-56.66
X55.22Y-59.2
X55.22Y-61.74
X55.22Y-64.28
X55.22Y-66.82
X55.22Y-69.36
X55.22Y-71.9
X55.22Y-74.44
X55.22Y-76.98
X73.0Y-28.72
X73.0Y-31.26
X73.0Y-33.8
X73.0Y-36.34
X73.0Y-38.88
X73.0Y-41.42
X73.0Y-43.96
X73.0Y-46.5
X73.0Y-49.04
X73.0Y-51.58
X73.0Y-54.12
X73.0Y-56.66
X73.0Y-59.2
X73.0Y-61.74
X73.0Y-64.28
X73.0Y-66.82
X73.0Y-69.36
X73.0Y-71.9
X73.0Y-74.44
X73.0Y-76.98
T4
X103.69Y-64.285
X103.69Y-85.285
X110.04Y-61.745
X110.04Y-82.745
X123.69Y-64.285
X123.69Y-85.285
X130.04Y-61.745
X130.04Y-82.745
X143.69Y-64.285
X143.69Y-85.285
X150.04Y-61.745
X150.04Y-82.745
X163.69Y-64.285
X163.69Y-85.285
X170.04Y-61.745
X170.04Y-82.745
T2
G00X87.335Y-15.04
M15
G01X87.335Y-14.24
M16
G05
G00X87.335Y-19.37
M15
G01X87.335Y-18.27
M16
G05
G00X95.975Y-15.04
M15
G01X95.975Y-14.24
M16
G05
G00X95.975Y-19.37
M15
G01X95.975Y-18.27
M16
G05
M30
