%TF.GenerationSoftware,KiCad,Pcbnew,10.0.3*%
%TF.CreationDate,2026-07-03T03:36:02+09:00*%
%TF.ProjectId,softswitcher,736f6674-7377-4697-9463-6865722e6b69,rev?*%
%TF.SameCoordinates,Original*%
%TF.FileFunction,Legend,Top*%
%TF.FilePolarity,Positive*%
%FSLAX46Y46*%
G04 Gerber Fmt 4.6, Leading zero omitted, Abs format (unit mm)*
G04 Created by KiCad (PCBNEW 10.0.3) date 2026-07-03 03:36:02*
%MOMM*%
%LPD*%
G01*
G04 APERTURE LIST*
%ADD10C,0.150000*%
%ADD11C,0.120000*%
G04 APERTURE END LIST*
D10*
X52073339Y-27915895D02*
X51597149Y-27915895D01*
X52168577Y-27630180D02*
X51835244Y-28630180D01*
X51835244Y-28630180D02*
X51501911Y-27630180D01*
X50644768Y-27630180D02*
X51216196Y-27630180D01*
X50930482Y-27630180D02*
X50930482Y-28630180D01*
X50930482Y-28630180D02*
X51025720Y-28487323D01*
X51025720Y-28487323D02*
X51120958Y-28392085D01*
X51120958Y-28392085D02*
X51216196Y-28344466D01*
X91988333Y-21760180D02*
X91988333Y-21045895D01*
X91988333Y-21045895D02*
X92035952Y-20903038D01*
X92035952Y-20903038D02*
X92131190Y-20807800D01*
X92131190Y-20807800D02*
X92274047Y-20760180D01*
X92274047Y-20760180D02*
X92369285Y-20760180D01*
X90988333Y-20760180D02*
X91559761Y-20760180D01*
X91274047Y-20760180D02*
X91274047Y-21760180D01*
X91274047Y-21760180D02*
X91369285Y-21617323D01*
X91369285Y-21617323D02*
X91464523Y-21522085D01*
X91464523Y-21522085D02*
X91559761Y-21474466D01*
X137454819Y-95738094D02*
X136454819Y-95738094D01*
X136454819Y-95738094D02*
X136454819Y-95499999D01*
X136454819Y-95499999D02*
X136502438Y-95357142D01*
X136502438Y-95357142D02*
X136597676Y-95261904D01*
X136597676Y-95261904D02*
X136692914Y-95214285D01*
X136692914Y-95214285D02*
X136883390Y-95166666D01*
X136883390Y-95166666D02*
X137026247Y-95166666D01*
X137026247Y-95166666D02*
X137216723Y-95214285D01*
X137216723Y-95214285D02*
X137311961Y-95261904D01*
X137311961Y-95261904D02*
X137407200Y-95357142D01*
X137407200Y-95357142D02*
X137454819Y-95499999D01*
X137454819Y-95499999D02*
X137454819Y-95738094D01*
X136454819Y-94309523D02*
X136454819Y-94499999D01*
X136454819Y-94499999D02*
X136502438Y-94595237D01*
X136502438Y-94595237D02*
X136550057Y-94642856D01*
X136550057Y-94642856D02*
X136692914Y-94738094D01*
X136692914Y-94738094D02*
X136883390Y-94785713D01*
X136883390Y-94785713D02*
X137264342Y-94785713D01*
X137264342Y-94785713D02*
X137359580Y-94738094D01*
X137359580Y-94738094D02*
X137407200Y-94690475D01*
X137407200Y-94690475D02*
X137454819Y-94595237D01*
X137454819Y-94595237D02*
X137454819Y-94404761D01*
X137454819Y-94404761D02*
X137407200Y-94309523D01*
X137407200Y-94309523D02*
X137359580Y-94261904D01*
X137359580Y-94261904D02*
X137264342Y-94214285D01*
X137264342Y-94214285D02*
X137026247Y-94214285D01*
X137026247Y-94214285D02*
X136931009Y-94261904D01*
X136931009Y-94261904D02*
X136883390Y-94309523D01*
X136883390Y-94309523D02*
X136835771Y-94404761D01*
X136835771Y-94404761D02*
X136835771Y-94595237D01*
X136835771Y-94595237D02*
X136883390Y-94690475D01*
X136883390Y-94690475D02*
X136931009Y-94738094D01*
X136931009Y-94738094D02*
X137026247Y-94785713D01*
X166738095Y-78617319D02*
X166738095Y-79426842D01*
X166738095Y-79426842D02*
X166785714Y-79522080D01*
X166785714Y-79522080D02*
X166833333Y-79569700D01*
X166833333Y-79569700D02*
X166928571Y-79617319D01*
X166928571Y-79617319D02*
X167119047Y-79617319D01*
X167119047Y-79617319D02*
X167214285Y-79569700D01*
X167214285Y-79569700D02*
X167261904Y-79522080D01*
X167261904Y-79522080D02*
X167309523Y-79426842D01*
X167309523Y-79426842D02*
X167309523Y-78617319D01*
X167833333Y-79617319D02*
X168023809Y-79617319D01*
X168023809Y-79617319D02*
X168119047Y-79569700D01*
X168119047Y-79569700D02*
X168166666Y-79522080D01*
X168166666Y-79522080D02*
X168261904Y-79379223D01*
X168261904Y-79379223D02*
X168309523Y-79188747D01*
X168309523Y-79188747D02*
X168309523Y-78807795D01*
X168309523Y-78807795D02*
X168261904Y-78712557D01*
X168261904Y-78712557D02*
X168214285Y-78664938D01*
X168214285Y-78664938D02*
X168119047Y-78617319D01*
X168119047Y-78617319D02*
X167928571Y-78617319D01*
X167928571Y-78617319D02*
X167833333Y-78664938D01*
X167833333Y-78664938D02*
X167785714Y-78712557D01*
X167785714Y-78712557D02*
X167738095Y-78807795D01*
X167738095Y-78807795D02*
X167738095Y-79045890D01*
X167738095Y-79045890D02*
X167785714Y-79141128D01*
X167785714Y-79141128D02*
X167833333Y-79188747D01*
X167833333Y-79188747D02*
X167928571Y-79236366D01*
X167928571Y-79236366D02*
X168119047Y-79236366D01*
X168119047Y-79236366D02*
X168214285Y-79188747D01*
X168214285Y-79188747D02*
X168261904Y-79141128D01*
X168261904Y-79141128D02*
X168309523Y-79045890D01*
X166738095Y-57617319D02*
X166738095Y-58426842D01*
X166738095Y-58426842D02*
X166785714Y-58522080D01*
X166785714Y-58522080D02*
X166833333Y-58569700D01*
X166833333Y-58569700D02*
X166928571Y-58617319D01*
X166928571Y-58617319D02*
X167119047Y-58617319D01*
X167119047Y-58617319D02*
X167214285Y-58569700D01*
X167214285Y-58569700D02*
X167261904Y-58522080D01*
X167261904Y-58522080D02*
X167309523Y-58426842D01*
X167309523Y-58426842D02*
X167309523Y-57617319D01*
X167928571Y-58045890D02*
X167833333Y-57998271D01*
X167833333Y-57998271D02*
X167785714Y-57950652D01*
X167785714Y-57950652D02*
X167738095Y-57855414D01*
X167738095Y-57855414D02*
X167738095Y-57807795D01*
X167738095Y-57807795D02*
X167785714Y-57712557D01*
X167785714Y-57712557D02*
X167833333Y-57664938D01*
X167833333Y-57664938D02*
X167928571Y-57617319D01*
X167928571Y-57617319D02*
X168119047Y-57617319D01*
X168119047Y-57617319D02*
X168214285Y-57664938D01*
X168214285Y-57664938D02*
X168261904Y-57712557D01*
X168261904Y-57712557D02*
X168309523Y-57807795D01*
X168309523Y-57807795D02*
X168309523Y-57855414D01*
X168309523Y-57855414D02*
X168261904Y-57950652D01*
X168261904Y-57950652D02*
X168214285Y-57998271D01*
X168214285Y-57998271D02*
X168119047Y-58045890D01*
X168119047Y-58045890D02*
X167928571Y-58045890D01*
X167928571Y-58045890D02*
X167833333Y-58093509D01*
X167833333Y-58093509D02*
X167785714Y-58141128D01*
X167785714Y-58141128D02*
X167738095Y-58236366D01*
X167738095Y-58236366D02*
X167738095Y-58426842D01*
X167738095Y-58426842D02*
X167785714Y-58522080D01*
X167785714Y-58522080D02*
X167833333Y-58569700D01*
X167833333Y-58569700D02*
X167928571Y-58617319D01*
X167928571Y-58617319D02*
X168119047Y-58617319D01*
X168119047Y-58617319D02*
X168214285Y-58569700D01*
X168214285Y-58569700D02*
X168261904Y-58522080D01*
X168261904Y-58522080D02*
X168309523Y-58426842D01*
X168309523Y-58426842D02*
X168309523Y-58236366D01*
X168309523Y-58236366D02*
X168261904Y-58141128D01*
X168261904Y-58141128D02*
X168214285Y-58093509D01*
X168214285Y-58093509D02*
X168119047Y-58045890D01*
X146738095Y-78617319D02*
X146738095Y-79426842D01*
X146738095Y-79426842D02*
X146785714Y-79522080D01*
X146785714Y-79522080D02*
X146833333Y-79569700D01*
X146833333Y-79569700D02*
X146928571Y-79617319D01*
X146928571Y-79617319D02*
X147119047Y-79617319D01*
X147119047Y-79617319D02*
X147214285Y-79569700D01*
X147214285Y-79569700D02*
X147261904Y-79522080D01*
X147261904Y-79522080D02*
X147309523Y-79426842D01*
X147309523Y-79426842D02*
X147309523Y-78617319D01*
X147690476Y-78617319D02*
X148357142Y-78617319D01*
X148357142Y-78617319D02*
X147928571Y-79617319D01*
X146738095Y-57617319D02*
X146738095Y-58426842D01*
X146738095Y-58426842D02*
X146785714Y-58522080D01*
X146785714Y-58522080D02*
X146833333Y-58569700D01*
X146833333Y-58569700D02*
X146928571Y-58617319D01*
X146928571Y-58617319D02*
X147119047Y-58617319D01*
X147119047Y-58617319D02*
X147214285Y-58569700D01*
X147214285Y-58569700D02*
X147261904Y-58522080D01*
X147261904Y-58522080D02*
X147309523Y-58426842D01*
X147309523Y-58426842D02*
X147309523Y-57617319D01*
X148214285Y-57617319D02*
X148023809Y-57617319D01*
X148023809Y-57617319D02*
X147928571Y-57664938D01*
X147928571Y-57664938D02*
X147880952Y-57712557D01*
X147880952Y-57712557D02*
X147785714Y-57855414D01*
X147785714Y-57855414D02*
X147738095Y-58045890D01*
X147738095Y-58045890D02*
X147738095Y-58426842D01*
X147738095Y-58426842D02*
X147785714Y-58522080D01*
X147785714Y-58522080D02*
X147833333Y-58569700D01*
X147833333Y-58569700D02*
X147928571Y-58617319D01*
X147928571Y-58617319D02*
X148119047Y-58617319D01*
X148119047Y-58617319D02*
X148214285Y-58569700D01*
X148214285Y-58569700D02*
X148261904Y-58522080D01*
X148261904Y-58522080D02*
X148309523Y-58426842D01*
X148309523Y-58426842D02*
X148309523Y-58188747D01*
X148309523Y-58188747D02*
X148261904Y-58093509D01*
X148261904Y-58093509D02*
X148214285Y-58045890D01*
X148214285Y-58045890D02*
X148119047Y-57998271D01*
X148119047Y-57998271D02*
X147928571Y-57998271D01*
X147928571Y-57998271D02*
X147833333Y-58045890D01*
X147833333Y-58045890D02*
X147785714Y-58093509D01*
X147785714Y-58093509D02*
X147738095Y-58188747D01*
X126738095Y-78617319D02*
X126738095Y-79426842D01*
X126738095Y-79426842D02*
X126785714Y-79522080D01*
X126785714Y-79522080D02*
X126833333Y-79569700D01*
X126833333Y-79569700D02*
X126928571Y-79617319D01*
X126928571Y-79617319D02*
X127119047Y-79617319D01*
X127119047Y-79617319D02*
X127214285Y-79569700D01*
X127214285Y-79569700D02*
X127261904Y-79522080D01*
X127261904Y-79522080D02*
X127309523Y-79426842D01*
X127309523Y-79426842D02*
X127309523Y-78617319D01*
X128261904Y-78617319D02*
X127785714Y-78617319D01*
X127785714Y-78617319D02*
X127738095Y-79093509D01*
X127738095Y-79093509D02*
X127785714Y-79045890D01*
X127785714Y-79045890D02*
X127880952Y-78998271D01*
X127880952Y-78998271D02*
X128119047Y-78998271D01*
X128119047Y-78998271D02*
X128214285Y-79045890D01*
X128214285Y-79045890D02*
X128261904Y-79093509D01*
X128261904Y-79093509D02*
X128309523Y-79188747D01*
X128309523Y-79188747D02*
X128309523Y-79426842D01*
X128309523Y-79426842D02*
X128261904Y-79522080D01*
X128261904Y-79522080D02*
X128214285Y-79569700D01*
X128214285Y-79569700D02*
X128119047Y-79617319D01*
X128119047Y-79617319D02*
X127880952Y-79617319D01*
X127880952Y-79617319D02*
X127785714Y-79569700D01*
X127785714Y-79569700D02*
X127738095Y-79522080D01*
X126738095Y-57617319D02*
X126738095Y-58426842D01*
X126738095Y-58426842D02*
X126785714Y-58522080D01*
X126785714Y-58522080D02*
X126833333Y-58569700D01*
X126833333Y-58569700D02*
X126928571Y-58617319D01*
X126928571Y-58617319D02*
X127119047Y-58617319D01*
X127119047Y-58617319D02*
X127214285Y-58569700D01*
X127214285Y-58569700D02*
X127261904Y-58522080D01*
X127261904Y-58522080D02*
X127309523Y-58426842D01*
X127309523Y-58426842D02*
X127309523Y-57617319D01*
X128214285Y-57950652D02*
X128214285Y-58617319D01*
X127976190Y-57569700D02*
X127738095Y-58283985D01*
X127738095Y-58283985D02*
X128357142Y-58283985D01*
X106738095Y-57617319D02*
X106738095Y-58426842D01*
X106738095Y-58426842D02*
X106785714Y-58522080D01*
X106785714Y-58522080D02*
X106833333Y-58569700D01*
X106833333Y-58569700D02*
X106928571Y-58617319D01*
X106928571Y-58617319D02*
X107119047Y-58617319D01*
X107119047Y-58617319D02*
X107214285Y-58569700D01*
X107214285Y-58569700D02*
X107261904Y-58522080D01*
X107261904Y-58522080D02*
X107309523Y-58426842D01*
X107309523Y-58426842D02*
X107309523Y-57617319D01*
X107738095Y-57712557D02*
X107785714Y-57664938D01*
X107785714Y-57664938D02*
X107880952Y-57617319D01*
X107880952Y-57617319D02*
X108119047Y-57617319D01*
X108119047Y-57617319D02*
X108214285Y-57664938D01*
X108214285Y-57664938D02*
X108261904Y-57712557D01*
X108261904Y-57712557D02*
X108309523Y-57807795D01*
X108309523Y-57807795D02*
X108309523Y-57903033D01*
X108309523Y-57903033D02*
X108261904Y-58045890D01*
X108261904Y-58045890D02*
X107690476Y-58617319D01*
X107690476Y-58617319D02*
X108309523Y-58617319D01*
X87870833Y-40124819D02*
X87537500Y-39648628D01*
X87299405Y-40124819D02*
X87299405Y-39124819D01*
X87299405Y-39124819D02*
X87680357Y-39124819D01*
X87680357Y-39124819D02*
X87775595Y-39172438D01*
X87775595Y-39172438D02*
X87823214Y-39220057D01*
X87823214Y-39220057D02*
X87870833Y-39315295D01*
X87870833Y-39315295D02*
X87870833Y-39458152D01*
X87870833Y-39458152D02*
X87823214Y-39553390D01*
X87823214Y-39553390D02*
X87775595Y-39601009D01*
X87775595Y-39601009D02*
X87680357Y-39648628D01*
X87680357Y-39648628D02*
X87299405Y-39648628D01*
X88251786Y-39220057D02*
X88299405Y-39172438D01*
X88299405Y-39172438D02*
X88394643Y-39124819D01*
X88394643Y-39124819D02*
X88632738Y-39124819D01*
X88632738Y-39124819D02*
X88727976Y-39172438D01*
X88727976Y-39172438D02*
X88775595Y-39220057D01*
X88775595Y-39220057D02*
X88823214Y-39315295D01*
X88823214Y-39315295D02*
X88823214Y-39410533D01*
X88823214Y-39410533D02*
X88775595Y-39553390D01*
X88775595Y-39553390D02*
X88204167Y-40124819D01*
X88204167Y-40124819D02*
X88823214Y-40124819D01*
X88124819Y-37666666D02*
X87648628Y-37999999D01*
X88124819Y-38238094D02*
X87124819Y-38238094D01*
X87124819Y-38238094D02*
X87124819Y-37857142D01*
X87124819Y-37857142D02*
X87172438Y-37761904D01*
X87172438Y-37761904D02*
X87220057Y-37714285D01*
X87220057Y-37714285D02*
X87315295Y-37666666D01*
X87315295Y-37666666D02*
X87458152Y-37666666D01*
X87458152Y-37666666D02*
X87553390Y-37714285D01*
X87553390Y-37714285D02*
X87601009Y-37761904D01*
X87601009Y-37761904D02*
X87648628Y-37857142D01*
X87648628Y-37857142D02*
X87648628Y-38238094D01*
X88124819Y-36714285D02*
X88124819Y-37285713D01*
X88124819Y-36999999D02*
X87124819Y-36999999D01*
X87124819Y-36999999D02*
X87267676Y-37095237D01*
X87267676Y-37095237D02*
X87362914Y-37190475D01*
X87362914Y-37190475D02*
X87410533Y-37285713D01*
X157454819Y-95738094D02*
X156454819Y-95738094D01*
X156454819Y-95738094D02*
X156454819Y-95499999D01*
X156454819Y-95499999D02*
X156502438Y-95357142D01*
X156502438Y-95357142D02*
X156597676Y-95261904D01*
X156597676Y-95261904D02*
X156692914Y-95214285D01*
X156692914Y-95214285D02*
X156883390Y-95166666D01*
X156883390Y-95166666D02*
X157026247Y-95166666D01*
X157026247Y-95166666D02*
X157216723Y-95214285D01*
X157216723Y-95214285D02*
X157311961Y-95261904D01*
X157311961Y-95261904D02*
X157407200Y-95357142D01*
X157407200Y-95357142D02*
X157454819Y-95499999D01*
X157454819Y-95499999D02*
X157454819Y-95738094D01*
X156883390Y-94595237D02*
X156835771Y-94690475D01*
X156835771Y-94690475D02*
X156788152Y-94738094D01*
X156788152Y-94738094D02*
X156692914Y-94785713D01*
X156692914Y-94785713D02*
X156645295Y-94785713D01*
X156645295Y-94785713D02*
X156550057Y-94738094D01*
X156550057Y-94738094D02*
X156502438Y-94690475D01*
X156502438Y-94690475D02*
X156454819Y-94595237D01*
X156454819Y-94595237D02*
X156454819Y-94404761D01*
X156454819Y-94404761D02*
X156502438Y-94309523D01*
X156502438Y-94309523D02*
X156550057Y-94261904D01*
X156550057Y-94261904D02*
X156645295Y-94214285D01*
X156645295Y-94214285D02*
X156692914Y-94214285D01*
X156692914Y-94214285D02*
X156788152Y-94261904D01*
X156788152Y-94261904D02*
X156835771Y-94309523D01*
X156835771Y-94309523D02*
X156883390Y-94404761D01*
X156883390Y-94404761D02*
X156883390Y-94595237D01*
X156883390Y-94595237D02*
X156931009Y-94690475D01*
X156931009Y-94690475D02*
X156978628Y-94738094D01*
X156978628Y-94738094D02*
X157073866Y-94785713D01*
X157073866Y-94785713D02*
X157264342Y-94785713D01*
X157264342Y-94785713D02*
X157359580Y-94738094D01*
X157359580Y-94738094D02*
X157407200Y-94690475D01*
X157407200Y-94690475D02*
X157454819Y-94595237D01*
X157454819Y-94595237D02*
X157454819Y-94404761D01*
X157454819Y-94404761D02*
X157407200Y-94309523D01*
X157407200Y-94309523D02*
X157359580Y-94261904D01*
X157359580Y-94261904D02*
X157264342Y-94214285D01*
X157264342Y-94214285D02*
X157073866Y-94214285D01*
X157073866Y-94214285D02*
X156978628Y-94261904D01*
X156978628Y-94261904D02*
X156931009Y-94309523D01*
X156931009Y-94309523D02*
X156883390Y-94404761D01*
X161454819Y-60238094D02*
X160454819Y-60238094D01*
X160454819Y-60238094D02*
X160454819Y-59999999D01*
X160454819Y-59999999D02*
X160502438Y-59857142D01*
X160502438Y-59857142D02*
X160597676Y-59761904D01*
X160597676Y-59761904D02*
X160692914Y-59714285D01*
X160692914Y-59714285D02*
X160883390Y-59666666D01*
X160883390Y-59666666D02*
X161026247Y-59666666D01*
X161026247Y-59666666D02*
X161216723Y-59714285D01*
X161216723Y-59714285D02*
X161311961Y-59761904D01*
X161311961Y-59761904D02*
X161407200Y-59857142D01*
X161407200Y-59857142D02*
X161454819Y-59999999D01*
X161454819Y-59999999D02*
X161454819Y-60238094D01*
X160454819Y-59333332D02*
X160454819Y-58666666D01*
X160454819Y-58666666D02*
X161454819Y-59095237D01*
X141454819Y-60238094D02*
X140454819Y-60238094D01*
X140454819Y-60238094D02*
X140454819Y-59999999D01*
X140454819Y-59999999D02*
X140502438Y-59857142D01*
X140502438Y-59857142D02*
X140597676Y-59761904D01*
X140597676Y-59761904D02*
X140692914Y-59714285D01*
X140692914Y-59714285D02*
X140883390Y-59666666D01*
X140883390Y-59666666D02*
X141026247Y-59666666D01*
X141026247Y-59666666D02*
X141216723Y-59714285D01*
X141216723Y-59714285D02*
X141311961Y-59761904D01*
X141311961Y-59761904D02*
X141407200Y-59857142D01*
X141407200Y-59857142D02*
X141454819Y-59999999D01*
X141454819Y-59999999D02*
X141454819Y-60238094D01*
X140454819Y-58761904D02*
X140454819Y-59238094D01*
X140454819Y-59238094D02*
X140931009Y-59285713D01*
X140931009Y-59285713D02*
X140883390Y-59238094D01*
X140883390Y-59238094D02*
X140835771Y-59142856D01*
X140835771Y-59142856D02*
X140835771Y-58904761D01*
X140835771Y-58904761D02*
X140883390Y-58809523D01*
X140883390Y-58809523D02*
X140931009Y-58761904D01*
X140931009Y-58761904D02*
X141026247Y-58714285D01*
X141026247Y-58714285D02*
X141264342Y-58714285D01*
X141264342Y-58714285D02*
X141359580Y-58761904D01*
X141359580Y-58761904D02*
X141407200Y-58809523D01*
X141407200Y-58809523D02*
X141454819Y-58904761D01*
X141454819Y-58904761D02*
X141454819Y-59142856D01*
X141454819Y-59142856D02*
X141407200Y-59238094D01*
X141407200Y-59238094D02*
X141359580Y-59285713D01*
X117454819Y-95738094D02*
X116454819Y-95738094D01*
X116454819Y-95738094D02*
X116454819Y-95499999D01*
X116454819Y-95499999D02*
X116502438Y-95357142D01*
X116502438Y-95357142D02*
X116597676Y-95261904D01*
X116597676Y-95261904D02*
X116692914Y-95214285D01*
X116692914Y-95214285D02*
X116883390Y-95166666D01*
X116883390Y-95166666D02*
X117026247Y-95166666D01*
X117026247Y-95166666D02*
X117216723Y-95214285D01*
X117216723Y-95214285D02*
X117311961Y-95261904D01*
X117311961Y-95261904D02*
X117407200Y-95357142D01*
X117407200Y-95357142D02*
X117454819Y-95499999D01*
X117454819Y-95499999D02*
X117454819Y-95738094D01*
X116788152Y-94309523D02*
X117454819Y-94309523D01*
X116407200Y-94547618D02*
X117121485Y-94785713D01*
X117121485Y-94785713D02*
X117121485Y-94166666D01*
X121454819Y-60238094D02*
X120454819Y-60238094D01*
X120454819Y-60238094D02*
X120454819Y-59999999D01*
X120454819Y-59999999D02*
X120502438Y-59857142D01*
X120502438Y-59857142D02*
X120597676Y-59761904D01*
X120597676Y-59761904D02*
X120692914Y-59714285D01*
X120692914Y-59714285D02*
X120883390Y-59666666D01*
X120883390Y-59666666D02*
X121026247Y-59666666D01*
X121026247Y-59666666D02*
X121216723Y-59714285D01*
X121216723Y-59714285D02*
X121311961Y-59761904D01*
X121311961Y-59761904D02*
X121407200Y-59857142D01*
X121407200Y-59857142D02*
X121454819Y-59999999D01*
X121454819Y-59999999D02*
X121454819Y-60238094D01*
X120454819Y-59333332D02*
X120454819Y-58714285D01*
X120454819Y-58714285D02*
X120835771Y-59047618D01*
X120835771Y-59047618D02*
X120835771Y-58904761D01*
X120835771Y-58904761D02*
X120883390Y-58809523D01*
X120883390Y-58809523D02*
X120931009Y-58761904D01*
X120931009Y-58761904D02*
X121026247Y-58714285D01*
X121026247Y-58714285D02*
X121264342Y-58714285D01*
X121264342Y-58714285D02*
X121359580Y-58761904D01*
X121359580Y-58761904D02*
X121407200Y-58809523D01*
X121407200Y-58809523D02*
X121454819Y-58904761D01*
X121454819Y-58904761D02*
X121454819Y-59190475D01*
X121454819Y-59190475D02*
X121407200Y-59285713D01*
X121407200Y-59285713D02*
X121359580Y-59333332D01*
X97454819Y-95738094D02*
X96454819Y-95738094D01*
X96454819Y-95738094D02*
X96454819Y-95499999D01*
X96454819Y-95499999D02*
X96502438Y-95357142D01*
X96502438Y-95357142D02*
X96597676Y-95261904D01*
X96597676Y-95261904D02*
X96692914Y-95214285D01*
X96692914Y-95214285D02*
X96883390Y-95166666D01*
X96883390Y-95166666D02*
X97026247Y-95166666D01*
X97026247Y-95166666D02*
X97216723Y-95214285D01*
X97216723Y-95214285D02*
X97311961Y-95261904D01*
X97311961Y-95261904D02*
X97407200Y-95357142D01*
X97407200Y-95357142D02*
X97454819Y-95499999D01*
X97454819Y-95499999D02*
X97454819Y-95738094D01*
X96550057Y-94785713D02*
X96502438Y-94738094D01*
X96502438Y-94738094D02*
X96454819Y-94642856D01*
X96454819Y-94642856D02*
X96454819Y-94404761D01*
X96454819Y-94404761D02*
X96502438Y-94309523D01*
X96502438Y-94309523D02*
X96550057Y-94261904D01*
X96550057Y-94261904D02*
X96645295Y-94214285D01*
X96645295Y-94214285D02*
X96740533Y-94214285D01*
X96740533Y-94214285D02*
X96883390Y-94261904D01*
X96883390Y-94261904D02*
X97454819Y-94833332D01*
X97454819Y-94833332D02*
X97454819Y-94214285D01*
X101454819Y-60238094D02*
X100454819Y-60238094D01*
X100454819Y-60238094D02*
X100454819Y-59999999D01*
X100454819Y-59999999D02*
X100502438Y-59857142D01*
X100502438Y-59857142D02*
X100597676Y-59761904D01*
X100597676Y-59761904D02*
X100692914Y-59714285D01*
X100692914Y-59714285D02*
X100883390Y-59666666D01*
X100883390Y-59666666D02*
X101026247Y-59666666D01*
X101026247Y-59666666D02*
X101216723Y-59714285D01*
X101216723Y-59714285D02*
X101311961Y-59761904D01*
X101311961Y-59761904D02*
X101407200Y-59857142D01*
X101407200Y-59857142D02*
X101454819Y-59999999D01*
X101454819Y-59999999D02*
X101454819Y-60238094D01*
X101454819Y-58714285D02*
X101454819Y-59285713D01*
X101454819Y-58999999D02*
X100454819Y-58999999D01*
X100454819Y-58999999D02*
X100597676Y-59095237D01*
X100597676Y-59095237D02*
X100692914Y-59190475D01*
X100692914Y-59190475D02*
X100740533Y-59285713D01*
X106738095Y-78617319D02*
X106738095Y-79426842D01*
X106738095Y-79426842D02*
X106785714Y-79522080D01*
X106785714Y-79522080D02*
X106833333Y-79569700D01*
X106833333Y-79569700D02*
X106928571Y-79617319D01*
X106928571Y-79617319D02*
X107119047Y-79617319D01*
X107119047Y-79617319D02*
X107214285Y-79569700D01*
X107214285Y-79569700D02*
X107261904Y-79522080D01*
X107261904Y-79522080D02*
X107309523Y-79426842D01*
X107309523Y-79426842D02*
X107309523Y-78617319D01*
X107690476Y-78617319D02*
X108309523Y-78617319D01*
X108309523Y-78617319D02*
X107976190Y-78998271D01*
X107976190Y-78998271D02*
X108119047Y-78998271D01*
X108119047Y-78998271D02*
X108214285Y-79045890D01*
X108214285Y-79045890D02*
X108261904Y-79093509D01*
X108261904Y-79093509D02*
X108309523Y-79188747D01*
X108309523Y-79188747D02*
X108309523Y-79426842D01*
X108309523Y-79426842D02*
X108261904Y-79522080D01*
X108261904Y-79522080D02*
X108214285Y-79569700D01*
X108214285Y-79569700D02*
X108119047Y-79617319D01*
X108119047Y-79617319D02*
X107833333Y-79617319D01*
X107833333Y-79617319D02*
X107738095Y-79569700D01*
X107738095Y-79569700D02*
X107690476Y-79522080D01*
X82738095Y-36854819D02*
X82738095Y-37664342D01*
X82738095Y-37664342D02*
X82785714Y-37759580D01*
X82785714Y-37759580D02*
X82833333Y-37807200D01*
X82833333Y-37807200D02*
X82928571Y-37854819D01*
X82928571Y-37854819D02*
X83119047Y-37854819D01*
X83119047Y-37854819D02*
X83214285Y-37807200D01*
X83214285Y-37807200D02*
X83261904Y-37759580D01*
X83261904Y-37759580D02*
X83309523Y-37664342D01*
X83309523Y-37664342D02*
X83309523Y-36854819D01*
X84309523Y-37854819D02*
X83738095Y-37854819D01*
X84023809Y-37854819D02*
X84023809Y-36854819D01*
X84023809Y-36854819D02*
X83928571Y-36997676D01*
X83928571Y-36997676D02*
X83833333Y-37092914D01*
X83833333Y-37092914D02*
X83738095Y-37140533D01*
%TO.C,A1*%
D11*
X75040000Y-76180000D02*
X75040000Y-77780000D01*
X74720000Y-77850000D02*
X74720000Y-27850000D01*
X74380000Y-78397000D02*
X74380000Y-27303000D01*
X74110000Y-78460000D02*
X71620000Y-78460000D01*
X74110000Y-27240000D02*
X70272061Y-27240000D01*
X71620000Y-78460000D02*
X71620000Y-77546480D01*
X71620000Y-78460000D02*
X70272060Y-78460000D01*
X71620000Y-75153520D02*
X71620000Y-30546480D01*
X71620000Y-28153520D02*
X71620000Y-27240000D01*
X69347939Y-78460000D02*
X68345000Y-78460000D01*
X68345000Y-78460000D02*
X59875000Y-78460000D01*
X68220000Y-79760000D02*
X68220000Y-78940000D01*
X68220000Y-79760000D02*
X60000000Y-79760000D01*
X68220000Y-78940000D02*
X68010000Y-78940000D01*
X68010000Y-78940000D02*
X68010000Y-77544000D01*
X68010000Y-75156000D02*
X68010000Y-73940000D01*
X67710000Y-27240000D02*
X69347939Y-27240000D01*
X60510000Y-27240000D02*
X67710000Y-27240000D01*
X60210000Y-78940000D02*
X60210000Y-77544000D01*
X60210000Y-75156000D02*
X60210000Y-73940000D01*
X60210000Y-73940000D02*
X68010000Y-73940000D01*
X60000000Y-79760000D02*
X60000000Y-78940000D01*
X60000000Y-78940000D02*
X60210000Y-78940000D01*
X59875000Y-78460000D02*
X58872061Y-78460000D01*
X58872061Y-27240000D02*
X60510000Y-27240000D01*
X57947939Y-78460000D02*
X56600000Y-78460000D01*
X57947939Y-27240000D02*
X54110000Y-27240000D01*
X56600000Y-78460000D02*
X56600000Y-77546480D01*
X56600000Y-75153520D02*
X56600000Y-30546480D01*
X56600000Y-28153520D02*
X56600000Y-27240000D01*
X54110000Y-78460000D02*
X56600000Y-78460000D01*
X53840000Y-27303000D02*
X53840000Y-78397000D01*
X53500000Y-77850000D02*
X53500000Y-27850000D01*
X74720000Y-77850000D02*
G75*
G02*
X74110000Y-78460000I-610000J0D01*
G01*
X74110000Y-27240000D02*
G75*
G02*
X74720000Y-27850000I99J-609901D01*
G01*
X54110000Y-78460000D02*
G75*
G02*
X53500000Y-77850000I0J610000D01*
G01*
X53500000Y-27850000D02*
G75*
G02*
X54110000Y-27240000I610000J0D01*
G01*
%TO.C,J1*%
X96325000Y-15815000D02*
X96325000Y-17515000D01*
X86985000Y-15815000D02*
X86985000Y-17515000D01*
%TO.C,D6*%
X140000000Y-97360000D02*
X140000000Y-93350000D01*
X138000000Y-97360000D02*
X138000000Y-93350000D01*
X138000000Y-97360000D02*
X140000000Y-97360000D01*
%TO.C,U9*%
X174500000Y-94825000D02*
X160500000Y-94825000D01*
X174500000Y-80825000D02*
X174500000Y-94825000D01*
X160500000Y-80825000D02*
X174500000Y-80825000D01*
X160500000Y-80825000D02*
X160500000Y-94825000D01*
%TO.C,U8*%
X174500000Y-73825000D02*
X160500000Y-73825000D01*
X174500000Y-59825000D02*
X174500000Y-73825000D01*
X160500000Y-59825000D02*
X174500000Y-59825000D01*
X160500000Y-59825000D02*
X160500000Y-73825000D01*
%TO.C,U7*%
X154500000Y-94825000D02*
X140500000Y-94825000D01*
X154500000Y-80825000D02*
X154500000Y-94825000D01*
X140500000Y-80825000D02*
X154500000Y-80825000D01*
X140500000Y-80825000D02*
X140500000Y-94825000D01*
%TO.C,U6*%
X154500000Y-73825000D02*
X140500000Y-73825000D01*
X154500000Y-59825000D02*
X154500000Y-73825000D01*
X140500000Y-59825000D02*
X154500000Y-59825000D01*
X140500000Y-59825000D02*
X140500000Y-73825000D01*
%TO.C,U5*%
X134500000Y-94825000D02*
X120500000Y-94825000D01*
X134500000Y-80825000D02*
X134500000Y-94825000D01*
X120500000Y-80825000D02*
X134500000Y-80825000D01*
X120500000Y-80825000D02*
X120500000Y-94825000D01*
%TO.C,U4*%
X134500000Y-73825000D02*
X120500000Y-73825000D01*
X134500000Y-59825000D02*
X134500000Y-73825000D01*
X120500000Y-59825000D02*
X134500000Y-59825000D01*
X120500000Y-59825000D02*
X120500000Y-73825000D01*
%TO.C,U2*%
X114500000Y-73825000D02*
X100500000Y-73825000D01*
X114500000Y-59825000D02*
X114500000Y-73825000D01*
X100500000Y-59825000D02*
X114500000Y-59825000D01*
X100500000Y-59825000D02*
X100500000Y-73825000D01*
%TO.C,R2*%
X87310436Y-40590000D02*
X88764564Y-40590000D01*
X87310436Y-42410000D02*
X88764564Y-42410000D01*
%TO.C,R1*%
X88590000Y-38227064D02*
X88590000Y-36772936D01*
X90410000Y-38227064D02*
X90410000Y-36772936D01*
%TO.C,D8*%
X158000000Y-97360000D02*
X160000000Y-97360000D01*
X158000000Y-97360000D02*
X158000000Y-93350000D01*
X160000000Y-97360000D02*
X160000000Y-93350000D01*
%TO.C,D7*%
X160000000Y-57140000D02*
X158000000Y-57140000D01*
X160000000Y-57140000D02*
X160000000Y-61150000D01*
X158000000Y-57140000D02*
X158000000Y-61150000D01*
%TO.C,D5*%
X140000000Y-57140000D02*
X138000000Y-57140000D01*
X140000000Y-57140000D02*
X140000000Y-61150000D01*
X138000000Y-57140000D02*
X138000000Y-61150000D01*
%TO.C,D4*%
X118000000Y-97360000D02*
X120000000Y-97360000D01*
X118000000Y-97360000D02*
X118000000Y-93350000D01*
X120000000Y-97360000D02*
X120000000Y-93350000D01*
%TO.C,D3*%
X120000000Y-57140000D02*
X118000000Y-57140000D01*
X120000000Y-57140000D02*
X120000000Y-61150000D01*
X118000000Y-57140000D02*
X118000000Y-61150000D01*
%TO.C,D2*%
X98000000Y-97360000D02*
X100000000Y-97360000D01*
X98000000Y-97360000D02*
X98000000Y-93350000D01*
X100000000Y-97360000D02*
X100000000Y-93350000D01*
%TO.C,D1*%
X100000000Y-57140000D02*
X98000000Y-57140000D01*
X100000000Y-57140000D02*
X100000000Y-61150000D01*
X98000000Y-57140000D02*
X98000000Y-61150000D01*
%TO.C,U3*%
X114500000Y-94825000D02*
X100500000Y-94825000D01*
X114500000Y-80825000D02*
X114500000Y-94825000D01*
X100500000Y-80825000D02*
X114500000Y-80825000D01*
X100500000Y-80825000D02*
X100500000Y-94825000D01*
%TO.C,U1*%
X85560000Y-36560000D02*
X81440000Y-36560000D01*
X81440000Y-31440000D02*
X85560000Y-31440000D01*
X87240000Y-36000000D02*
X87570000Y-35760000D01*
X87570000Y-36240000D01*
X87240000Y-36000000D01*
G36*
X87570000Y-36240000D02*
G01*
X87240000Y-36000000D01*
X87570000Y-35760000D01*
X87570000Y-36240000D01*
G37*
%TD*%
M02*
